<svg width="1222" height="250" viewBox="0 0 1222 250" fill="none" xmlns="http://www.w3.org/2000/svg">
<g clip-path="url(#clip0_1089:8507)">
<path d="M867.789 62.4999H840.02V187.5H867.789V62.4999Z" fill="white"/>
<path d="M964.981 187.5H895.558V62.4999H964.981C987.95 62.4999 1006.64 81.1908 1006.64 104.167V145.833C1006.64 168.809 987.95 187.5 964.981 187.5ZM923.327 159.722H964.981C972.639 159.722 978.866 153.493 978.866 145.833V104.167C978.866 96.5068 972.639 90.2776 964.981 90.2776H923.327V159.722Z" fill="white"/>
<path d="M812.25 101.389V98.6109C812.25 77.5519 795.12 60.4165 774.068 60.4165H740.398C718.769 60.4165 701.174 78.0172 701.174 99.6526C701.174 121.288 718.769 138.889 740.398 138.889H756.712H773.026C779.344 138.889 784.481 144.028 784.481 150.347C784.481 156.666 779.344 161.805 773.026 161.805H739.356C733.615 161.805 728.943 157.132 728.943 151.389V148.611H701.174V151.389C701.174 172.448 718.304 189.583 739.356 189.583H773.026C794.655 189.583 812.25 171.982 812.25 150.347C812.25 128.712 794.655 111.111 773.026 111.111H756.712H740.398C734.08 111.111 728.943 105.972 728.943 99.6526C728.943 93.3331 734.08 88.1942 740.398 88.1942H774.068C779.809 88.1942 784.481 92.8678 784.481 98.6109V101.389H812.25Z" fill="white"/>
<path d="M1145.48 90.2776V62.4999H1034.4V187.5H1145.48V159.722H1062.17V138.889H1138.54V111.111H1062.17V90.2776H1145.48Z" fill="white"/>
<path d="M673.404 187.5H645.43L590.096 110.007V187.5H562.327V62.4999H590.298L645.635 139.993V62.4999H673.404V187.5Z" fill="white"/>
<path d="M534.558 62.4999H506.789V187.5H534.558V62.4999Z" fill="white"/>
<path d="M465.135 159.722C472.803 159.722 479.019 165.941 479.019 173.611C479.019 181.281 472.803 187.5 465.135 187.5C457.467 187.5 451.25 181.281 451.25 173.611C451.25 165.941 457.467 159.722 465.135 159.722Z" fill="white"/>
<path d="M392.758 187.5H424.297L401.995 146.073C414.879 138.114 423.481 123.864 423.481 107.639C423.481 82.7499 403.237 62.4999 378.356 62.4999H340.173H312.404V152.778V187.5H340.173V152.778H374.069L392.758 187.5ZM340.173 90.2776H378.356C387.926 90.2776 395.712 98.0658 395.712 107.639C395.712 117.212 387.926 125 378.356 125H340.173V90.2776Z" fill="white"/>
<path fill-rule="evenodd" clip-rule="evenodd" d="M249.923 0H0V250H0.0555385H1221.9V0H249.923ZM187.442 187.5H124.962H62.4808V152.778V62.5H124.962H142.317C167.24 62.5 187.442 82.7083 187.442 107.639C187.442 123.642 179.115 137.705 166.556 145.719L187.442 187.5ZM1208.02 236.111H249.923V13.8889H1208.02V236.111Z" fill="white"/>
<path fill-rule="evenodd" clip-rule="evenodd" d="M249.923 0H0V250H0.0555385H1221.9V0H249.923ZM187.442 187.5H124.962H62.4808V152.778V62.5H124.962H142.317C167.24 62.5 187.442 82.7083 187.442 107.639C187.442 123.642 179.115 137.705 166.556 145.719L187.442 187.5ZM1208.02 236.111H249.923V13.8889H1208.02V236.111Z" fill="white"/>
</g>
<defs>
<clipPath id="clip0_1089:8507">
<rect width="1221.85" height="250" fill="white"/>
</clipPath>
</defs>
</svg>
