<?xml version="1.0" encoding="utf-8"?>
<!-- Generator: Adobe Illustrator 25.2.3, SVG Export Plug-In . SVG Version: 6.00 Build 0)  -->
<svg version="1.1" id="Layer_1" xmlns="http://www.w3.org/2000/svg" xmlns:xlink="http://www.w3.org/1999/xlink" x="0px" y="0px"
	 viewBox="0 0 709 360" style="enable-background:new 0 0 709 360;" xml:space="preserve">
<style type="text/css">
	.st0{fill:#FFFFFF;}
</style>
<path class="st0" d="M579,130h-41c-36.4,0-66,31.4-66,70c0,38.6,29.6,70,66,70h15c9.4,0,18.2-2.9,26-8v8h40V87h-40V130z M579,210
	c0,11-9,20-20,20h-21c-14.3,0-26-13.5-26-30s11.7-30,26-30h41V210z M316,100c0,11-9,20-20,20s-20-9-20-20s9-20,20-20S316,89,316,100
	z M276,140h40v130h-40V140z M382,100c0,11-9,20-20,20s-20-9-20-20s9-20,20-20S382,89,382,100z M342,140h40v130h-40V140z M448,100
	c0,11-9,20-20,20s-20-9-20-20s9-20,20-20S448,89,448,100z M408,140h40v130h-40V140z M639,90h7.1v1.3h-2.6V98h-1.9v-6.7H639V90z
	 M656,90v8h-1.7v-3.3c0-0.2,0-0.4,0-0.6c0-0.2,0-0.5,0-0.7c0-0.2,0-0.5,0.1-0.7c0-0.2,0-0.4,0.1-0.6l-0.8,1.9l-1.4,3.4h-1.1
	l-1.4-3.4l-0.7-1.9c0,0.2,0,0.4,0.1,0.6c0,0.2,0,0.5,0.1,0.7c0,0.2,0.1,0.5,0.1,0.7c0,0.2,0,0.4,0,0.6V98h-1.7v-8h2l1.6,3.7
	c0.1,0.3,0.2,0.5,0.3,0.8s0.2,0.5,0.3,0.8h0.1c0.1-0.3,0.2-0.5,0.3-0.8s0.2-0.5,0.3-0.8L654,90H656z M250,155c0-35.8-29.2-65-65-65
	H90v180h40v-50h50.8l25.9,50h45.1l-31.4-60.5C238.2,197.9,250,177.8,250,155z M185,180h-55v-50h55c13.8,0,25,11.2,25,25
	S198.8,180,185,180z"/>
</svg>
