<svg width="17" height="23" viewBox="0 0 17 23" fill="none" xmlns="http://www.w3.org/2000/svg">
<path fill-rule="evenodd" clip-rule="evenodd" d="M8.77502 22.0856C10.7649 19.6334 16.0635 12.7477 16.0635 8.95498C16.0635 4.28542 12.4675 0.5 8.03173 0.5C3.59593 0.5 0 4.28542 0 8.95498C0 12.7477 5.29852 19.6334 7.28845 22.0856C7.67453 22.5614 8.38894 22.5614 8.77502 22.0856ZM8.03188 11.7413C10.0033 11.7413 11.6015 10.0636 11.6015 7.99417C11.6015 5.92471 10.0033 4.24708 8.03188 4.24708C6.06041 4.24708 4.46222 5.92471 4.46222 7.99417C4.46222 10.0636 6.06041 11.7413 8.03188 11.7413Z" fill="#CCCCCC"/>
</svg>
